<?xml version="1.0" encoding="UTF-8" standalone="no"?>
<!DOCTYPE svg PUBLIC "-//W3C//DTD SVG 1.1//EN"
 "http://www.w3.org/Graphics/SVG/1.1/DTD/svg11.dtd">
<!-- Generated by graphviz version 2.40.1 (0)
 -->
<!-- Title: %3 Pages: 1 -->
<svg width="204pt" height="204pt"
 viewBox="0.00 0.00 204.29 204.00" xmlns="http://www.w3.org/2000/svg" xmlns:xlink="http://www.w3.org/1999/xlink">
<g id="graph0" class="graph" transform="scale(1 1) rotate(0) translate(4 200)">
<title>%3</title>
<polygon fill="#ffffff" stroke="transparent" points="-4,4 -4,-200 200.2941,-200 200.2941,4 -4,4"/>
<!-- GUI -->
<g id="node1" class="node">
<title>GUI</title>
<ellipse fill="none" stroke="#000000" cx="66.2941" cy="-178" rx="27.0966" ry="18"/>
<text text-anchor="middle" x="66.2941" y="-174.3" font-family="Times,serif" font-size="14.00" fill="#000000">GUI</text>
</g>
<!-- clipboard -->
<g id="node2" class="node">
<title>clipboard</title>
<ellipse fill="none" stroke="#000000" cx="66.2941" cy="-98" rx="46.2923" ry="18"/>
<text text-anchor="middle" x="66.2941" y="-94.3" font-family="Times,serif" font-size="14.00" fill="#000000">clipboard</text>
</g>
<!-- GUI&#45;&gt;clipboard -->
<g id="edge1" class="edge">
<title>GUI&#45;&gt;clipboard</title>
<path fill="none" stroke="#000000" d="M42.5891,-168.9445C30.9273,-163.141 17.9698,-154.348 11.2941,-142 5.5014,-131.2852 12.5435,-122.2471 23.3093,-115.2031"/>
<polygon fill="#000000" stroke="#000000" points="25.1434,-118.1867 32.117,-110.2105 21.6915,-112.097 25.1434,-118.1867"/>
<text text-anchor="middle" x="55.7941" y="-136.4" font-family="Times,serif" font-size="7.00" fill="#000000">在GUI下弹出菜单中选择 复制</text>
</g>
<!-- clipboard&#45;&gt;GUI -->
<g id="edge4" class="edge">
<title>clipboard&#45;&gt;GUI</title>
<path fill="none" stroke="#000000" d="M89.3897,-113.7482C97.8383,-121.5841 104.4314,-131.5939 100.2941,-142 98.19,-147.2924 94.8978,-152.2566 91.1735,-156.708"/>
<polygon fill="#000000" stroke="#000000" points="88.4884,-154.4536 84.1662,-164.1268 93.5773,-159.2602 88.4884,-154.4536"/>
<text text-anchor="middle" x="145.7941" y="-136.4" font-family="Times,serif" font-size="7.00" fill="#000000">在GUI下弹出菜单中选择 粘帖</text>
</g>
<!-- Command line -->
<g id="node3" class="node">
<title>Command line</title>
<ellipse fill="none" stroke="#000000" cx="66.2941" cy="-18" rx="66.0889" ry="18"/>
<text text-anchor="middle" x="66.2941" y="-14.3" font-family="Times,serif" font-size="14.00" fill="#000000">Command line</text>
</g>
<!-- clipboard&#45;&gt;Command line -->
<g id="edge2" class="edge">
<title>clipboard&#45;&gt;Command line</title>
<path fill="none" stroke="#000000" d="M35.6417,-84.2738C26.8137,-78.7034 18.2399,-71.3383 13.2941,-62 8.5924,-53.1226 12.6825,-45.3337 20.301,-38.8748"/>
<polygon fill="#000000" stroke="#000000" points="22.7067,-41.4638 28.9007,-32.8681 18.6983,-35.725 22.7067,-41.4638"/>
<text text-anchor="middle" x="55.7941" y="-56.4" font-family="Times,serif" font-size="7.00" fill="#000000">在命令行下按下shift + Insert</text>
</g>
<!-- Command line&#45;&gt;clipboard -->
<g id="edge3" class="edge">
<title>Command line&#45;&gt;clipboard</title>
<path fill="none" stroke="#000000" d="M89.2498,-35.1336C96.5976,-42.7987 101.9865,-52.2882 98.2941,-62 96.7562,-66.045 94.5325,-69.9257 91.9629,-73.5432"/>
<polygon fill="#000000" stroke="#000000" points="89.1126,-71.5002 85.5,-81.4601 94.5352,-75.9269 89.1126,-71.5002"/>
<text text-anchor="middle" x="147.7941" y="-56.4" font-family="Times,serif" font-size="7.00" fill="#000000">命令： xsel &lt; file, or cat file | xsel</text>
</g>
</g>
</svg>
